<?xml version="1.0" encoding="UTF-8" standalone="no"?>
<svg
   width="32.810856"
   height="23.857138"
   viewBox="0 0 32.810855 23.857138"
   fill="none"
   version="1.1"
   id="svg16"
   sodipodi:docname="favicon.svg"
   inkscape:version="1.4.2 (ebf0e940d0, 2025-05-08)"
   xmlns:inkscape="http://www.inkscape.org/namespaces/inkscape"
   xmlns:sodipodi="http://sodipodi.sourceforge.net/DTD/sodipodi-0.dtd"
   xmlns="http://www.w3.org/2000/svg"
   xmlns:svg="http://www.w3.org/2000/svg">
  <defs
     id="defs20" />
  <sodipodi:namedview
     id="namedview18"
     pagecolor="#ffffff"
     bordercolor="#666666"
     borderopacity="1.0"
     inkscape:pageshadow="2"
     inkscape:pageopacity="0.0"
     inkscape:pagecheckerboard="0"
     showgrid="false"
     fit-margin-top="0"
     fit-margin-left="0"
     fit-margin-right="0"
     fit-margin-bottom="0"
     inkscape:zoom="3.4079357"
     inkscape:cx="31.544023"
     inkscape:cy="11.003729"
     inkscape:window-width="1920"
     inkscape:window-height="1043"
     inkscape:window-x="0"
     inkscape:window-y="0"
     inkscape:window-maximized="1"
     inkscape:current-layer="svg16"
     inkscape:showpageshadow="2"
     inkscape:deskcolor="#d1d1d1" />
  <path
     d="m 22.678082,6.7763171 c 0.2164,-0.22614 0.574,-0.21926 0.7986,0.01537 l 4.6504,4.8580499 c 0.2246,0.2346 0.2312,0.6081 0.0147,0.8343 l -8.5702,8.9529 c -0.2165,0.2261 -0.5741,0.2192 -0.7987,-0.0154 l -4.6504,-4.858 c -0.2246,-0.2346 -0.2312,-0.6082 -0.0147,-0.8343 z"
     fill="#ffffff"
     fill-opacity="0.6"
     id="path4" />
  <path
     d="m 16.311482,0.18194709 c 0.2314,-0.24171 0.6055,-0.24272 0.8357,-0.00227 l 4.7658,4.97861001 c 0.2302,0.24045 0.2292,0.63132 -0.0021,0.87303 L 6.8999823,21.712337 c -0.23138,0.2417 -0.60554,0.2428 -0.83572,0.0023 l -4.76583,-4.9786 c -0.23017,-0.2405 -0.2292,-0.6313 0.00217,-0.873 z"
     fill="#ffffff"
     fill-opacity="0.35"
     id="path6" />
  <path
     d="m 13.134482,14.900937 -0.108,-0.112 -0.108,0.112 -6.2860797,6.521 -5.24652,-5.4426 -0.10799,-0.112 -0.108,0.112 -0.86119404,0.8934 -0.100351,0.1041 0.100351,0.1041 6.21570404,6.4481 0.108,0.112 0.10799,-0.112 6.2860897,-6.5211 6.0338,6.2594 0.0443,0.0459 h 0.0637 5.4284 0.15 v -0.15 -1.2635 -0.15 h -0.15 -4.8602 z"
     fill="#ffd13e"
     stroke="#002d3c"
     stroke-width="0.3"
     id="path8" />
  <path
     d="m 23.547382,18.731237 c -0.2045,0.2152 -0.3308,0.4992 -0.3568,0.8024 l -0.2528,2.9472 c -0.0333,0.3884 0.2637,0.72 0.6342,0.7081 l 2.9831,-0.096 c 0.3144,-0.0101 0.6134,-0.146 0.8358,-0.3801 l 3.7597,-3.9559 -2.0244,-2.1252 -1.7894,-1.8876 z"
     fill="#ffffff"
     id="path10" />
  <path
     d="m 27.916582,14.134037 3.8138,4.0129 0.8995,-0.9465 c 0.2413,-0.2538 0.2413,-0.6654 0,-0.9192 l -2.9401,-3.0936 c -0.2413,-0.2539 -0.6324,-0.2539 -0.8737,0 z"
     fill="#ffffff"
     id="path12" />
</svg>
